# Blender v2.79 (sub 0) OBJ File: 'zinc.blend'
# www.blender.org
mtllib zinc.mtl
o Plane
v -6.333509 5.245287 1.164353
v 1.984991 -1.118094 3.582670
v -3.845766 5.918381 -5.621828
v 4.472733 -0.445000 -3.203511
v -5.213511 5.401470 -2.277234
v 3.104989 -0.961911 0.141082
v 3.664988 -0.883819 -1.579712
v -4.653512 5.479562 -3.998028
v -5.543700 5.629111 -0.542458
v 2.774800 -0.734270 1.875859
v -6.046492 5.285312 0.282392
v 2.272007 -1.078070 2.700709
v 2.864275 -0.995478 0.880757
v -5.454224 5.367903 -1.537559
v 3.944987 -0.844774 -2.440109
v -4.373512 5.518608 -4.858425
v -4.662024 5.804554 -3.113588
v 3.656475 -0.558827 -0.695272
v 4.083587 -0.825446 -2.866005
v -4.234913 5.537936 -5.284322
v -4.265765 5.859812 -4.331232
v 4.052734 -0.503569 -1.912916
v 3.536858 -0.901687 -1.185989
v -4.781641 5.461695 -3.604305
v -5.061641 5.422648 -2.743908
v 3.256859 -0.940733 -0.325592
v 2.419466 -1.057507 2.247591
v -5.899034 5.305875 -0.170725
v -5.959524 5.600882 0.813606
v 2.358976 -0.762501 3.231923
v -5.602900 5.347170 -1.080701
v 2.715600 -1.016211 1.337616
v 3.234039 -0.617736 0.602813
v -5.084461 5.745646 -1.815503
v -5.890470 5.702693 0.843975
v -6.264455 5.347099 1.194722
v 2.054045 -1.016282 3.613038
v 4.152641 -0.723634 -2.835637
v 4.541788 -0.343188 -3.173142
v -3.776712 6.020193 -5.591459
v -4.992586 5.524461 -2.713540
v -5.144457 5.503283 -2.246866
v 3.303093 -0.515924 0.633182
v 3.174043 -0.860099 0.171450
v 3.605913 -0.799875 -1.155621
v 3.734042 -0.782007 -1.549343
v -4.196711 5.961624 -4.300864
v -4.584457 5.581374 -3.967660
v -5.533845 5.448982 -1.050332
v -5.474646 5.730924 -0.512089
v 2.488520 -0.955695 2.277960
v 2.843854 -0.632458 1.906227
v -5.829979 5.407687 -0.140357
v -5.977437 5.387124 0.312761
v 2.428030 -0.660689 3.262291
v 2.341062 -0.976258 2.731077
v 2.784654 -0.914399 1.367984
v 2.933330 -0.893666 0.911126
v -5.015406 5.847457 -1.785135
v -5.385170 5.469715 -1.507191
v 4.121789 -0.401757 -1.882547
v 4.014041 -0.742961 -2.409740
v -4.165858 5.639748 -5.253953
v -4.304458 5.620420 -4.828057
v -4.712587 5.563507 -3.573937
v -4.592970 5.906366 -3.083220
v 3.325913 -0.838921 -0.295224
v 3.725530 -0.457015 -0.664903
vt 0.705845 0.792130
vt 0.741767 0.816781
vt 0.970613 0.158437
vt 0.898581 0.133149
vt 0.459944 0.816442
vt 0.486887 0.791811
vt 0.500877 0.129886
vt 0.451585 0.154309
vt 0.583637 0.791952
vt 0.612304 0.791994
vt 0.728857 0.131757
vt 0.676788 0.131329
vt 0.332919 0.791587
vt 0.364475 0.812296
vt 0.275637 0.148803
vt 0.220345 0.127584
vt 0.264083 0.814455
vt 0.299737 0.791539
vt 0.159792 0.127087
vt 0.089764 0.149645
vt 0.399490 0.791684
vt 0.432878 0.791733
vt 0.402554 0.129079
vt 0.341727 0.128580
vt 0.646392 0.816666
vt 0.674893 0.792085
vt 0.842450 0.132689
vt 0.795244 0.157042
vt 0.520932 0.791861
vt 0.556237 0.816557
vt 0.629210 0.155722
vt 0.562809 0.130394
vt 0.235086 0.791445
vt 0.041716 0.126118
vt 0.705845 0.792130
vt 0.898581 0.133149
vt 0.970613 0.158437
vt 0.741767 0.816781
vt 0.459944 0.816442
vt 0.451585 0.154309
vt 0.500877 0.129886
vt 0.486887 0.791811
vt 0.583637 0.791952
vt 0.676788 0.131329
vt 0.728857 0.131757
vt 0.612304 0.791994
vt 0.332919 0.791587
vt 0.220345 0.127584
vt 0.275637 0.148803
vt 0.364475 0.812296
vt 0.264083 0.814455
vt 0.089764 0.149645
vt 0.159792 0.127087
vt 0.299737 0.791539
vt 0.399490 0.791684
vt 0.341727 0.128580
vt 0.402554 0.129079
vt 0.432878 0.791733
vt 0.646392 0.816666
vt 0.795244 0.157042
vt 0.842450 0.132689
vt 0.674893 0.792085
vt 0.520932 0.791861
vt 0.562809 0.130394
vt 0.629210 0.155722
vt 0.556237 0.816557
vt 0.235086 0.791445
vt 0.041716 0.126118
vn -0.1783 -0.5446 -0.8195
vn -0.5944 -0.5563 0.5808
vn -0.5527 -0.8048 -0.2164
vn -0.2426 -0.6053 -0.7582
vn -0.6178 -0.6275 0.4739
vn -0.6103 -0.6023 0.5145
vn -0.1999 -0.5654 -0.8002
vn -0.1753 -0.5416 -0.8221
vn -0.6022 -0.5780 0.5506
vn -0.2046 -0.5699 -0.7959
vn -0.6258 -0.6605 0.4148
vn -0.1332 -0.4995 -0.8560
vn 0.1783 0.5446 0.8195
vn 0.5944 0.5563 -0.5808
vn 0.5527 0.8048 0.2164
vn 0.2426 0.6052 0.7582
vn 0.6178 0.6275 -0.4739
vn 0.6103 0.6023 -0.5145
vn 0.1999 0.5654 0.8002
vn 0.1753 0.5416 0.8221
vn 0.6022 0.5780 -0.5507
vn 0.2046 0.5699 0.7959
vn 0.6258 0.6605 -0.4148
vn 0.1332 0.4995 0.8560
vn 0.7739 -0.5920 0.2250
vn -0.7739 0.5920 -0.2250
vn -0.3226 -0.0629 0.9444
vn 0.3226 0.0629 -0.9444
usemtl Material.001
s off
f 20/1/1 3/2/1 4/3/1 19/4/1
f 34/5/2 5/6/2 6/7/2 33/8/2
f 24/9/3 8/10/3 7/11/3 23/12/3
f 28/13/4 9/14/4 10/15/4 27/16/4
f 29/17/5 11/18/5 12/19/5 30/20/5
f 31/21/3 14/22/3 13/23/3 32/24/3
f 21/25/6 16/26/6 15/27/6 22/28/6
f 25/29/7 17/30/7 18/31/7 26/32/7
f 16/26/3 20/1/3 19/4/3 15/27/3
f 8/10/8 21/25/8 22/28/8 7/11/8
f 17/30/9 24/9/9 23/12/9 18/31/9
f 5/6/3 25/29/3 26/32/3 6/7/3
f 11/18/3 28/13/3 27/16/3 12/19/3
f 1/33/10 29/17/10 30/20/10 2/34/10
f 9/14/11 31/21/11 32/24/11 10/15/11
f 14/22/12 34/5/12 33/8/12 13/23/12
f 63/35/13 38/36/13 39/37/13 40/38/13
f 59/39/14 43/40/14 44/41/14 42/42/14
f 65/43/15 45/44/15 46/45/15 48/46/15
f 53/47/16 51/48/16 52/49/16 50/50/16
f 35/51/17 55/52/17 56/53/17 54/54/17
f 49/55/15 57/56/15 58/57/15 60/58/15
f 47/59/18 61/60/18 62/61/18 64/62/18
f 41/63/19 67/64/19 68/65/19 66/66/19
f 64/62/15 62/61/15 38/36/15 63/35/15
f 48/46/20 46/45/20 61/60/20 47/59/20
f 66/66/21 68/65/21 45/44/21 65/43/21
f 42/42/15 44/41/15 67/64/15 41/63/15
f 54/54/15 56/53/15 51/48/15 53/47/15
f 36/67/22 37/68/22 55/52/22 35/51/22
f 50/50/23 52/49/23 57/56/23 49/55/23
f 60/58/24 58/57/24 43/40/24 59/39/24
f 27/16/25 10/15/25 52/49/25 51/48/25
f 9/14/26 28/13/26 53/47/26 50/50/26
f 15/27/25 19/4/25 38/36/25 62/61/25
f 3/2/26 20/1/26 63/35/26 40/38/26
f 28/13/26 11/18/26 54/54/26 53/47/26
f 11/18/26 29/17/26 35/51/26 54/54/26
f 29/17/26 1/33/26 36/67/26 35/51/26
f 30/20/25 12/19/25 56/53/25 55/52/25
f 2/34/25 30/20/25 55/52/25 37/68/25
f 1/33/27 2/34/27 37/68/27 36/67/27
f 16/26/26 21/25/26 47/59/26 64/62/26
f 19/4/25 4/3/25 39/37/25 38/36/25
f 7/11/25 22/28/25 61/60/25 46/45/25
f 32/24/25 13/23/25 58/57/25 57/56/25
f 14/22/26 31/21/26 49/55/26 60/58/26
f 4/3/28 3/2/28 40/38/28 39/37/28
f 34/5/26 14/22/26 60/58/26 59/39/26
f 10/15/25 32/24/25 57/56/25 52/49/25
f 25/29/26 5/6/26 42/42/26 41/63/26
f 18/31/25 23/12/25 45/44/25 68/65/25
f 33/8/25 6/7/25 44/41/25 43/40/25
f 8/10/26 24/9/26 65/43/26 48/46/26
f 22/28/25 15/27/25 62/61/25 61/60/25
f 13/23/25 33/8/25 43/40/25 58/57/25
f 20/1/26 16/26/26 64/62/26 63/35/26
f 5/6/26 34/5/26 59/39/26 42/42/26
f 23/12/25 7/11/25 46/45/25 45/44/25
f 17/30/26 25/29/26 41/63/26 66/66/26
f 21/25/26 8/10/26 48/46/26 47/59/26
f 6/7/25 26/32/25 67/64/25 44/41/25
f 24/9/26 17/30/26 66/66/26 65/43/26
f 26/32/25 18/31/25 68/65/25 67/64/25
f 31/21/26 9/14/26 50/50/26 49/55/26
f 12/19/25 27/16/25 51/48/25 56/53/25
