# Blender v2.79 (sub 0) OBJ File: ''
# www.blender.org
mtllib sodioNuevo.mtl
o Cylinder
v -0.000000 -1.125914 -2.479947
v 0.000000 2.703344 -1.000000
v 0.483813 -1.125914 -2.432295
v 0.195090 2.703344 -0.980785
v 0.949035 -1.125914 -2.291172
v 0.382683 2.703344 -0.923880
v 1.377785 -1.125914 -2.062000
v 0.555570 2.703344 -0.831470
v 1.753587 -1.125914 -1.753587
v 0.707107 2.703344 -0.707107
v 2.062001 -1.125914 -1.377784
v 0.831470 2.703344 -0.555570
v 2.291172 -1.125914 -0.949034
v 0.923880 2.703344 -0.382683
v 2.432295 -1.125914 -0.483813
v 0.980785 2.703344 -0.195090
v 2.479947 -1.125914 0.000000
v 1.000000 2.703344 -0.000000
v 2.432295 -1.125914 0.483814
v 0.980785 2.703344 0.195090
v 2.291172 -1.125914 0.949035
v 0.923880 2.703344 0.382683
v 2.062001 -1.125914 1.377785
v 0.831470 2.703344 0.555570
v 1.753587 -1.125914 1.753588
v 0.707107 2.703344 0.707107
v 1.377784 -1.125914 2.062001
v 0.555570 2.703344 0.831470
v 0.949034 -1.125914 2.291173
v 0.382683 2.703344 0.923880
v 0.483813 -1.125914 2.432296
v 0.195090 2.703344 0.980785
v -0.000001 -1.125914 2.479948
v -0.000000 2.703344 1.000000
v -0.483815 -1.125914 2.432296
v -0.195091 2.703344 0.980785
v -0.949036 -1.125914 2.291173
v -0.382684 2.703344 0.923879
v -1.377786 -1.125914 2.062001
v -0.555571 2.703344 0.831469
v -1.753589 -1.125914 1.753587
v -0.707107 2.703344 0.707106
v -2.062002 -1.125914 1.377784
v -0.831470 2.703344 0.555570
v -2.291174 -1.125914 0.949033
v -0.923880 2.703344 0.382683
v -2.432297 -1.125914 0.483812
v -0.980785 2.703344 0.195089
v -2.479948 -1.125914 -0.000002
v -1.000000 2.703344 -0.000001
v -2.432296 -1.125914 -0.483816
v -0.980785 2.703344 -0.195091
v -2.291172 -1.125914 -0.949037
v -0.923879 2.703344 -0.382684
v -2.061999 -1.125914 -1.377787
v -0.831469 2.703344 -0.555571
v -1.753586 -1.125914 -1.753589
v -0.707106 2.703344 -0.707108
v -1.377782 -1.125914 -2.062002
v -0.555569 2.703344 -0.831470
v -0.949032 -1.125914 -2.291173
v -0.382682 2.703344 -0.923880
v -0.483810 -1.125914 -2.432296
v -0.195089 2.703344 -0.980786
v -0.000000 -1.705632 -2.314266
v 0.451491 -1.705632 -2.269798
v 0.885632 -1.705632 -2.138103
v 1.285738 -1.705632 -1.924242
v 1.636433 -1.705632 -1.636433
v 1.924242 -1.705632 -1.285737
v 2.138103 -1.705632 -0.885631
v 2.269799 -1.705632 -0.451491
v 2.314267 -1.705632 0.000000
v 2.269799 -1.705632 0.451491
v 2.138104 -1.705632 0.885632
v 1.924242 -1.705632 1.285738
v 1.636433 -1.705632 1.636434
v 1.285738 -1.705632 1.924243
v 0.885631 -1.705632 2.138104
v 0.451490 -1.705632 2.269799
v -0.000001 -1.705632 2.314267
v -0.451492 -1.705632 2.269799
v -0.885633 -1.705632 2.138104
v -1.285739 -1.705632 1.924242
v -1.636435 -1.705632 1.636433
v -1.924244 -1.705632 1.285737
v -2.138105 -1.705632 0.885630
v -2.269800 -1.705632 0.451489
v -2.314267 -1.705632 -0.000002
v -2.269799 -1.705632 -0.451493
v -2.138103 -1.705632 -0.885634
v -1.924241 -1.705632 -1.285740
v -1.636432 -1.705632 -1.636436
v -1.285735 -1.705632 -1.924244
v -0.885629 -1.705632 -2.138105
v -0.451488 -1.705632 -2.269799
v 0.000000 3.221638 -0.649767
v 0.126763 3.221638 -0.637282
v 0.248655 3.221638 -0.600306
v 0.360991 3.221638 -0.540261
v 0.459454 3.221638 -0.459454
v 0.540261 3.221638 -0.360991
v 0.600306 3.221638 -0.248655
v 0.637281 3.221638 -0.126763
v 0.649767 3.221638 -0.000000
v 0.637282 3.221638 0.126763
v 0.600306 3.221638 0.248655
v 0.540261 3.221638 0.360991
v 0.459454 3.221638 0.459454
v 0.360991 3.161215 0.540261
v 0.248655 3.221638 0.600306
v 0.126763 3.221638 0.637281
v -0.000000 3.221638 0.649766
v -0.126763 3.221638 0.637281
v -0.248655 3.221638 0.600306
v -0.360991 3.221638 0.540261
v -0.459455 3.221638 0.459454
v -0.540261 3.221638 0.360990
v -0.600306 3.221638 0.248654
v -0.637282 3.221638 0.126763
v -0.649767 3.221638 -0.000001
v -0.637281 3.221638 -0.126764
v -0.600306 3.221638 -0.248656
v -0.540261 3.221638 -0.360992
v -0.459454 3.221638 -0.459455
v -0.360990 3.221638 -0.540262
v -0.248654 3.221638 -0.600307
v -0.126762 3.221638 -0.637282
v 0.520059 2.893878 -0.778324
v 0.661910 2.893878 -0.661910
v 0.661910 2.893878 0.661910
v 0.520059 2.893878 0.778324
v -0.778324 2.893878 0.520059
v -0.864827 2.893878 0.358222
v -0.358222 2.893878 -0.864828
v -0.182619 2.893878 -0.918096
v 0.936082 2.893878 -0.000000
v 0.918096 2.893878 0.182620
v -0.182621 2.893878 0.918096
v -0.358224 2.893878 0.864827
v -0.864827 2.893878 -0.358224
v -0.778323 2.893878 -0.520060
v 0.778324 2.893878 -0.520059
v 0.358223 2.893878 0.864827
v -0.918096 2.893878 0.182620
v 0.000000 2.893878 -0.936082
v 0.182621 2.893878 -0.918096
v 0.864827 2.893878 0.358223
v -0.520060 2.893878 0.778324
v -0.661909 2.893878 -0.661911
v 0.864827 2.893878 -0.358223
v 0.182620 2.893878 0.918096
v -0.936082 2.893878 -0.000001
v 0.358223 2.893878 -0.864827
v 0.778324 2.893878 0.520059
v -0.661910 2.893878 0.661910
v -0.520058 2.893878 -0.778325
v 0.918096 2.893878 -0.182621
v -0.000000 2.893878 0.936082
v -0.918095 2.893878 -0.182622
vt 0.474742 0.005739
vt 0.480765 0.980810
vt 0.413328 0.982781
vt 0.337802 0.020410
vt 0.350974 0.987877
vt 0.214337 0.052755
vt 0.296962 0.995714
vt 0.112239 0.099313
vt 0.253734 1.005745
vt 0.036239 0.155664
vt 0.063480 0.135829
vt 0.260527 0.905990
vt 0.232490 0.916489
vt 0.019674 0.191641
vt 0.216106 0.927805
vt 0.000000 0.248561
vt 0.211187 0.939381
vt 0.002030 0.303699
vt 0.217012 0.950725
vt 0.022595 0.354988
vt 0.232498 0.961432
vt 0.058368 0.401084
vt 0.256364 0.971184
vt 0.106219 0.441212
vt 1.000000 0.184799
vt 0.663271 0.989429
vt 0.649825 0.992385
vt 0.986586 0.146947
vt 0.626160 0.995042
vt 0.945998 0.108654
vt 0.592750 0.997255
vt 0.876304 0.072244
vt 0.550725 0.998886
vt 0.778076 0.040508
vt 0.501890 0.999825
vt 0.655258 0.016367
vt 0.448636 1.000000
vt 0.515411 0.002343
vt 0.393767 0.999389
vt 0.368977 0.000000
vt 0.340242 0.998025
vt 0.227587 0.009549
vt 0.290891 0.995991
vt 0.101934 0.029803
vt 0.248154 0.993411
vt 0.000000 0.058498
vt 0.807236 0.491559
vt 0.673074 0.986513
vt 0.706189 0.979141
vt 0.868032 0.461212
vt 0.732764 0.970357
vt 0.920532 0.424262
vt 0.751427 0.960349
vt 0.962106 0.380934
vt 0.760850 0.949380
vt 0.989707 0.331788
vt 0.759860 0.937801
vt 1.000000 0.277893
vt 0.747583 0.926055
vt 0.989645 0.220997
vt 0.723625 0.914673
vt 0.955807 0.163663
vt 0.688247 0.904250
vt 0.896872 0.109285
vt 0.956114 0.126364
vt 0.725839 1.003824
vt 0.675358 0.994053
vt 0.863845 0.074053
vt 0.615574 0.986651
vt 0.747880 0.034077
vt 0.549492 0.982129
vt 0.615016 0.010454
vt 0.000000 0.000000
vt 0.000000 0.000000
vt 0.000000 0.000000
vt 0.000000 0.000000
vt 0.000000 0.000000
vt 0.000000 0.000000
vt 0.000000 0.000000
vt 0.000000 0.000000
vt 0.000000 0.000000
vt 0.000000 0.000000
vt 0.000000 0.000000
vt 0.000000 0.000000
vt 0.000000 0.000000
vt 0.000000 0.000000
vt 0.000000 0.000000
vt 0.000000 0.000000
vt 0.000000 0.000000
vt 0.000000 0.000000
vt 0.000000 0.000000
vt 0.000000 0.000000
vt 0.000000 0.000000
vt 0.000000 0.000000
vt 0.000000 0.000000
vt 0.000000 0.000000
vt 0.000000 0.000000
vt 0.000000 0.000000
vt 0.000000 0.000000
vt 0.000000 0.000000
vt 0.000000 0.000000
vt 0.000000 0.000000
vt 0.000000 0.000000
vt 0.000000 0.000000
vt 0.000000 0.000000
vt 0.000000 0.000000
vt 0.000000 0.000000
vt 0.000000 0.000000
vt 0.000000 0.000000
vt 0.000000 0.000000
vt 0.000000 0.000000
vt 0.000000 0.000000
vt 0.000000 0.000000
vt 0.000000 0.000000
vt 0.000000 0.000000
vt 0.000000 0.000000
vt 0.000000 0.000000
vt 0.000000 0.000000
vt 0.000000 0.000000
vt 0.000000 0.000000
vt 0.000000 0.000000
vt 0.000000 0.000000
vt 0.000000 0.000000
vt 0.000000 0.000000
vt 0.000000 0.000000
vt 0.000000 0.000000
vt 0.000000 0.000000
vt 0.000000 0.000000
vt 0.000000 0.000000
vt 0.000000 0.000000
vt 0.000000 0.000000
vt 0.000000 0.000000
vt 0.000000 0.000000
vt 0.000000 0.000000
vt 0.000000 0.000000
vt 0.000000 0.000000
vt 0.000000 0.000000
vt 0.000000 0.000000
vt 0.000000 0.000000
vt 0.000000 0.000000
vt 0.000000 0.000000
vt 0.000000 0.000000
vt 0.000000 0.000000
vt 0.000000 0.000000
vt 0.000000 0.000000
vt 0.000000 0.000000
vt 0.000000 0.000000
vt 0.000000 0.000000
vt 0.000000 0.000000
vt 0.000000 0.000000
vt 0.000000 0.000000
vt 0.000000 0.000000
vt 0.000000 0.000000
vt 0.000000 0.000000
vt 0.000000 0.000000
vt 0.000000 0.000000
vt 0.000000 0.000000
vt 0.000000 0.000000
vt 0.000000 0.000000
vt 0.000000 0.000000
vt 0.000000 0.000000
vt 0.000000 0.000000
vt 0.000000 0.000000
vt 0.000000 0.000000
vt 0.000000 0.000000
vt 0.000000 0.000000
vt 0.000000 0.000000
vt 0.000000 0.000000
vt 0.000000 0.000000
vt 0.000000 0.000000
vt 0.000000 0.000000
vt 0.000000 0.000000
vt 0.000000 0.000000
vt 0.000000 0.000000
vt 0.000000 0.000000
vt 0.000000 0.000000
vt 0.000000 0.000000
vt 0.000000 0.000000
vt 0.000000 0.000000
vt 0.000000 0.000000
vt 0.000000 0.000000
vt 0.000000 0.000000
vt 0.000000 0.000000
vt 0.000000 0.000000
vt 0.000000 0.000000
vt 0.000000 0.000000
vt 0.000000 0.000000
vt 0.000000 0.000000
vt 0.000000 0.000000
vt 0.000000 0.000000
vt 0.000000 0.000000
vt 0.000000 0.000000
vt 0.000000 0.000000
vt 0.000000 0.000000
vt 0.000000 0.000000
vt 0.000000 0.000000
vt 0.000000 0.000000
vt 0.000000 0.000000
vt 0.000000 0.000000
vt 0.000000 0.000000
vt 0.000000 0.000000
vt 0.000000 0.000000
vt 0.000000 0.000000
vt 0.000000 0.000000
vt 0.000000 0.000000
vt 0.000000 0.000000
vt 0.000000 0.000000
vt 0.000000 0.000000
vt 0.000000 0.000000
vt 0.000000 0.000000
vt 0.000000 0.000000
vt 0.000000 0.000000
vt 0.000000 0.000000
vt 0.000000 0.000000
vt 0.000000 0.000000
vt 0.000000 0.000000
vt 0.000000 0.000000
vt 0.000000 0.000000
vt 0.000000 0.000000
vt 0.000000 0.000000
vt 0.000000 0.000000
vt 0.000000 0.000000
vt 0.000000 0.000000
vt 0.000000 0.000000
vt 0.000000 0.000000
vt 0.000000 0.000000
vt 0.000000 0.000000
vt 0.000000 0.000000
vt 0.000000 0.000000
vt 0.000000 0.000000
vt 0.000000 0.000000
vt 0.000000 0.000000
vn 0.0915 0.3590 -0.9288
vn 0.2709 0.3590 -0.8932
vn 0.4400 0.3590 -0.8231
vn 0.5921 0.3590 -0.7215
vn 0.7215 0.3590 -0.5921
vn 0.8231 0.3590 -0.4400
vn 0.8932 0.3590 -0.2709
vn 0.9288 0.3590 -0.0915
vn 0.9288 0.3590 0.0915
vn 0.8932 0.3590 0.2709
vn 0.8231 0.3590 0.4400
vn 0.7215 0.3590 0.5921
vn 0.5921 0.3590 0.7215
vn 0.4400 0.3590 0.8231
vn 0.2709 0.3590 0.8932
vn 0.0915 0.3590 0.9288
vn -0.0915 0.3590 0.9288
vn -0.2709 0.3590 0.8932
vn -0.4400 0.3590 0.8231
vn -0.5921 0.3590 0.7215
vn -0.7215 0.3590 0.5921
vn -0.8231 0.3590 0.4400
vn -0.8932 0.3590 0.2709
vn -0.9288 0.3590 0.0915
vn -0.9288 0.3590 -0.0915
vn -0.8932 0.3590 -0.2709
vn -0.8231 0.3590 -0.4400
vn -0.7215 0.3590 -0.5921
vn -0.5921 0.3590 -0.7215
vn -0.4400 0.3590 -0.8231
vn -0.2709 0.3590 -0.8932
vn -0.0915 0.3590 -0.9288
vn 0.4788 0.6561 -0.5834
vn 0.0032 1.0000 0.0048
vn 0.3511 0.6855 0.6378
vn -0.6656 0.6561 0.3558
vn -0.2191 0.6561 -0.7222
vn 0.7511 0.6561 0.0740
vn -0.2191 0.6561 0.7222
vn -0.6656 0.6561 -0.3558
vn 0.5834 0.6561 -0.4788
vn 0.4549 0.6855 0.5685
vn -0.7222 0.6561 0.2191
vn 0.0740 0.6561 -0.7511
vn -0.0740 0.6561 -0.7511
vn 0.7222 0.6561 0.2191
vn -0.3558 0.6561 0.6656
vn -0.5834 0.6561 -0.4788
vn 0.6656 0.6561 -0.3558
vn 0.2191 0.6561 0.7222
vn -0.7511 0.6561 0.0740
vn 0.2191 0.6561 -0.7222
vn 0.6656 0.6561 0.3558
vn -0.4788 0.6561 0.5834
vn -0.4788 0.6561 -0.5834
vn 0.7222 0.6561 -0.2191
vn 0.0740 0.6561 0.7511
vn -0.7511 0.6561 -0.0740
vn 0.3558 0.6561 -0.6656
vn 0.5834 0.6561 0.4788
vn -0.5834 0.6561 0.4788
vn -0.3558 0.6561 -0.6656
vn 0.7511 0.6561 -0.0740
vn -0.0740 0.6561 0.7511
vn -0.7222 0.6561 -0.2191
vn -0.9077 0.3167 -0.2753
vn -0.0930 0.3167 0.9440
vn 0.9440 0.3167 -0.0930
vn -0.4471 0.3167 -0.8365
vn -0.7332 0.3167 0.6017
vn 0.7332 0.3167 0.6017
vn 0.4471 0.3167 -0.8365
vn -0.9440 0.3167 -0.0930
vn 0.0930 0.3167 0.9440
vn 0.9077 0.3167 -0.2753
vn -0.6017 0.3167 -0.7332
vn -0.6017 0.3167 0.7332
vn 0.8365 0.3167 0.4471
vn 0.2753 0.3167 -0.9077
vn -0.9440 0.3167 0.0930
vn 0.2753 0.3167 0.9077
vn 0.8365 0.3167 -0.4471
vn -0.7332 0.3167 -0.6017
vn -0.4471 0.3167 0.8365
vn 0.9077 0.3167 0.2753
vn -0.0930 0.3167 -0.9440
vn 0.0930 0.3167 -0.9440
vn -0.9077 0.3167 0.2753
vn 0.4471 0.3167 0.8365
vn 0.7332 0.3167 -0.6017
vn -0.8365 0.3167 -0.4471
vn -0.2753 0.3167 0.9077
vn 0.9440 0.3167 0.0930
vn -0.2753 0.3167 -0.9077
vn -0.8365 0.3167 0.4471
vn 0.6017 0.3167 0.7332
vn 0.6017 0.3167 -0.7332
vn 0.6102 -0.2736 0.7435
vn 0.0000 -1.0000 0.0000
vn -0.8483 -0.2736 0.4534
vn -0.2792 -0.2736 -0.9204
vn 0.9572 -0.2736 0.0943
vn -0.2792 -0.2736 0.9204
vn -0.8483 -0.2736 -0.4534
vn 0.7435 -0.2736 -0.6102
vn 0.4534 -0.2736 0.8483
vn -0.9204 -0.2736 0.2792
vn 0.0943 -0.2736 -0.9572
vn -0.0943 -0.2736 -0.9572
vn 0.9204 -0.2736 0.2792
vn -0.4534 -0.2736 0.8483
vn -0.7435 -0.2736 -0.6102
vn 0.8483 -0.2736 -0.4534
vn 0.2792 -0.2736 0.9204
vn -0.9572 -0.2736 0.0943
vn 0.2792 -0.2736 -0.9204
vn 0.8483 -0.2736 0.4534
vn -0.6102 -0.2736 0.7435
vn -0.6102 -0.2736 -0.7435
vn 0.9204 -0.2736 -0.2792
vn 0.0943 -0.2736 0.9572
vn -0.9572 -0.2736 -0.0943
vn 0.4534 -0.2736 -0.8483
vn 0.7435 -0.2736 0.6102
vn -0.7435 -0.2736 0.6102
vn -0.4534 -0.2736 -0.8483
vn 0.9572 -0.2736 -0.0943
vn -0.0943 -0.2736 0.9572
vn -0.9204 -0.2736 -0.2792
vn 0.6102 -0.2736 -0.7435
usemtl Material.001
s off
f 1/1/1 2/2/1 4/3/1 3/4/1
f 3/4/2 4/3/2 6/5/2 5/6/2
f 5/6/3 6/5/3 8/7/3 7/8/3
f 7/8/4 8/7/4 10/9/4 9/10/4
f 9/11/5 10/12/5 12/13/5 11/14/5
f 11/14/6 12/13/6 14/15/6 13/16/6
f 13/16/7 14/15/7 16/17/7 15/18/7
f 15/18/8 16/17/8 18/19/8 17/20/8
f 17/20/9 18/19/9 20/21/9 19/22/9
f 19/22/10 20/21/10 22/23/10 21/24/10
f 21/25/11 22/26/11 24/27/11 23/28/11
f 23/28/12 24/27/12 26/29/12 25/30/12
f 25/30/13 26/29/13 28/31/13 27/32/13
f 27/32/14 28/31/14 30/33/14 29/34/14
f 29/34/15 30/33/15 32/35/15 31/36/15
f 31/36/16 32/35/16 34/37/16 33/38/16
f 33/38/17 34/37/17 36/39/17 35/40/17
f 35/40/18 36/39/18 38/41/18 37/42/18
f 37/42/19 38/41/19 40/43/19 39/44/19
f 39/44/20 40/43/20 42/45/20 41/46/20
f 41/47/21 42/48/21 44/49/21 43/50/21
f 43/50/22 44/49/22 46/51/22 45/52/22
f 45/52/23 46/51/23 48/53/23 47/54/23
f 47/54/24 48/53/24 50/55/24 49/56/24
f 49/56/25 50/55/25 52/57/25 51/58/25
f 51/58/26 52/57/26 54/59/26 53/60/26
f 53/60/27 54/59/27 56/61/27 55/62/27
f 55/62/28 56/61/28 58/63/28 57/64/28
f 57/65/29 58/66/29 60/67/29 59/68/29
f 59/68/30 60/67/30 62/69/30 61/70/30
f 61/70/31 62/69/31 64/71/31 63/72/31
f 63/72/32 64/71/32 2/2/32 1/1/32
usemtl Material.002
f 130/73/33 129/74/33 100/75/33 101/76/33
f 98/77/34 97/78/34 128/79/34 127/80/34 126/81/34 125/82/34 124/83/34 123/84/34 122/85/34 121/86/34 120/87/34 119/88/34 118/89/34 117/90/34 116/91/34 115/92/34 114/93/34 113/94/34 112/95/34 111/96/34 110/97/34 109/98/34 108/99/34 107/100/34 106/101/34 105/102/34 104/103/34 103/104/34 102/105/34 101/76/34 100/75/34 99/106/34
f 132/107/35 131/108/35 109/98/35 110/97/35
f 134/109/36 133/110/36 118/89/36 119/88/36
f 136/111/37 135/112/37 127/80/37 128/79/37
f 138/113/38 137/114/38 105/102/38 106/101/38
f 140/115/39 139/116/39 114/93/39 115/92/39
f 142/117/40 141/118/40 123/84/40 124/83/40
f 143/119/41 130/73/41 101/76/41 102/105/41
f 144/120/42 132/107/42 110/97/42 111/96/42
f 145/121/43 134/109/43 119/88/43 120/87/43
f 147/122/44 146/123/44 97/78/44 98/77/44
f 146/123/45 136/111/45 128/79/45 97/78/45
f 148/124/46 138/113/46 106/101/46 107/100/46
f 149/125/47 140/115/47 115/92/47 116/91/47
f 150/126/48 142/117/48 124/83/48 125/82/48
f 151/127/49 143/119/49 102/105/49 103/104/49
f 152/128/50 144/120/50 111/96/50 112/95/50
f 153/129/51 145/121/51 120/87/51 121/86/51
f 154/130/52 147/122/52 98/77/52 99/106/52
f 155/131/53 148/124/53 107/100/53 108/99/53
f 156/132/54 149/125/54 116/91/54 117/90/54
f 157/133/55 150/126/55 125/82/55 126/81/55
f 158/134/56 151/127/56 103/104/56 104/103/56
f 159/135/57 152/128/57 112/95/57 113/94/57
f 160/136/58 153/129/58 121/86/58 122/85/58
f 129/74/59 154/130/59 99/106/59 100/75/59
f 131/108/60 155/131/60 108/99/60 109/98/60
f 133/110/61 156/132/61 117/90/61 118/89/61
f 135/112/62 157/133/62 126/81/62 127/80/62
f 137/114/63 158/134/63 104/103/63 105/102/63
f 139/116/64 159/135/64 113/94/64 114/93/64
f 141/118/65 160/136/65 122/85/65 123/84/65
f 54/137/66 52/138/66 160/136/66 141/118/66
f 36/139/67 34/140/67 159/135/67 139/116/67
f 18/141/68 16/142/68 158/134/68 137/114/68
f 62/143/69 60/144/69 157/133/69 135/112/69
f 44/145/70 42/146/70 156/132/70 133/110/70
f 26/147/71 24/148/71 155/131/71 131/108/71
f 8/149/72 6/150/72 154/130/72 129/74/72
f 52/138/73 50/151/73 153/129/73 160/136/73
f 34/140/74 32/152/74 152/128/74 159/135/74
f 16/142/75 14/153/75 151/127/75 158/134/75
f 60/144/76 58/154/76 150/126/76 157/133/76
f 42/146/77 40/155/77 149/125/77 156/132/77
f 24/148/78 22/156/78 148/124/78 155/131/78
f 6/150/79 4/157/79 147/122/79 154/130/79
f 50/151/80 48/158/80 145/121/80 153/129/80
f 32/152/81 30/159/81 144/120/81 152/128/81
f 14/153/82 12/160/82 143/119/82 151/127/82
f 58/154/83 56/161/83 142/117/83 150/126/83
f 40/155/84 38/162/84 140/115/84 149/125/84
f 22/156/85 20/163/85 138/113/85 148/124/85
f 2/164/86 64/165/86 136/111/86 146/123/86
f 4/157/87 2/164/87 146/123/87 147/122/87
f 48/158/88 46/166/88 134/109/88 145/121/88
f 30/159/89 28/167/89 132/107/89 144/120/89
f 12/160/90 10/168/90 130/73/90 143/119/90
f 56/161/91 54/137/91 141/118/91 142/117/91
f 38/162/92 36/139/92 139/116/92 140/115/92
f 20/163/93 18/141/93 137/114/93 138/113/93
f 64/165/94 62/143/94 135/112/94 136/111/94
f 46/166/95 44/145/95 133/110/95 134/109/95
f 28/167/96 26/147/96 131/108/96 132/107/96
f 10/168/97 8/149/97 129/74/97 130/73/97
usemtl Material.003
f 25/169/98 27/170/98 78/171/98 77/172/98
f 65/173/99 66/174/99 67/175/99 68/176/99 69/177/99 70/178/99 71/179/99 72/180/99 73/181/99 74/182/99 75/183/99 76/184/99 77/172/99 78/171/99 79/185/99 80/186/99 81/187/99 82/188/99 83/189/99 84/190/99 85/191/99 86/192/99 87/193/99 88/194/99 89/195/99 90/196/99 91/197/99 92/198/99 93/199/99 94/200/99 95/201/99 96/202/99
f 43/203/100 45/204/100 87/193/100 86/192/100
f 61/205/101 63/206/101 96/202/101 95/201/101
f 17/207/102 19/208/102 74/182/102 73/181/102
f 35/209/103 37/210/103 83/189/103 82/188/103
f 53/211/104 55/212/104 92/198/104 91/197/104
f 9/213/105 11/214/105 70/178/105 69/177/105
f 27/170/106 29/215/106 79/185/106 78/171/106
f 45/204/107 47/216/107 88/194/107 87/193/107
f 1/217/108 3/218/108 66/174/108 65/173/108
f 63/206/109 1/217/109 65/173/109 96/202/109
f 19/208/110 21/219/110 75/183/110 74/182/110
f 37/210/111 39/220/111 84/190/111 83/189/111
f 55/212/112 57/221/112 93/199/112 92/198/112
f 11/214/113 13/222/113 71/179/113 70/178/113
f 29/215/114 31/223/114 80/186/114 79/185/114
f 47/216/115 49/224/115 89/195/115 88/194/115
f 3/218/116 5/225/116 67/175/116 66/174/116
f 21/219/117 23/226/117 76/184/117 75/183/117
f 39/220/118 41/227/118 85/191/118 84/190/118
f 57/221/119 59/228/119 94/200/119 93/199/119
f 13/222/120 15/229/120 72/180/120 71/179/120
f 31/223/121 33/230/121 81/187/121 80/186/121
f 49/224/122 51/231/122 90/196/122 89/195/122
f 5/225/123 7/232/123 68/176/123 67/175/123
f 23/226/124 25/169/124 77/172/124 76/184/124
f 41/227/125 43/203/125 86/192/125 85/191/125
f 59/228/126 61/205/126 95/201/126 94/200/126
f 15/229/127 17/207/127 73/181/127 72/180/127
f 33/230/128 35/209/128 82/188/128 81/187/128
f 51/231/129 53/211/129 91/197/129 90/196/129
f 7/232/130 9/213/130 69/177/130 68/176/130
