# Blender v2.79 (sub 0) OBJ File: ''
# www.blender.org
mtllib selenio.mtl
o Cube
v 0.265777 0.123472 -2.900258
v 0.265777 0.123472 2.900258
v -0.265777 0.123472 2.900257
v -0.265777 0.123472 -2.900259
v 0.265777 5.519614 -2.900256
v 0.265777 5.519614 2.900259
v -0.265777 5.519614 2.900257
v -0.265777 5.519614 -2.900258
v 0.265777 2.821543 -2.900257
v 0.265777 2.821543 2.900259
v -0.265777 2.821543 2.900257
v -0.265777 2.821543 -2.900259
v 0.265777 0.123472 -0.027361
v -0.265777 0.123472 -0.027362
v 0.265777 5.519614 -0.027359
v -0.265777 5.519614 -0.027361
v -0.265777 2.821543 -0.027362
v 0.265777 2.821543 -0.027360
v 0.265777 5.261939 -2.900256
v 0.265777 5.261939 2.900259
v -0.265777 5.261939 2.900257
v -0.265777 5.261939 -2.900258
v -0.265777 5.261939 -0.027361
v 0.265777 5.261939 -0.027359
v -0.265777 0.123472 -2.624273
v -0.265777 5.519614 -2.624273
v -0.265777 2.821543 -2.624273
v 0.265777 0.123472 -2.624272
v 0.265777 5.519614 -2.624271
v 0.265777 2.821543 -2.624272
v 0.265777 5.261939 -2.624271
v -0.265777 5.261939 -2.624273
v 0.265777 0.446619 -2.900258
v 0.265777 0.446619 2.900258
v -0.265777 0.446619 2.900257
v -0.265777 0.446619 -2.900259
v 0.265777 0.446619 -0.027361
v -0.265777 0.446619 -0.027362
v 0.265777 0.446619 -2.624272
v -0.265777 0.446619 -2.624273
v 0.265777 0.123472 2.565822
v 0.265777 5.519614 2.565823
v 0.265777 2.821543 2.565823
v -0.265777 0.123472 2.565821
v -0.265777 5.519614 2.565821
v -0.265777 2.821543 2.565821
v -0.265777 5.261939 2.565821
v 0.265777 5.261939 2.565823
v -0.265777 0.446619 2.565821
v 0.265777 0.446619 2.565822
v 0.265777 2.605752 -2.900257
v 0.265777 2.605752 2.900259
v -0.265777 2.605752 2.900257
v -0.265777 2.605752 -2.900259
v 0.265777 2.605752 -0.027360
v -0.265777 2.605752 -0.027362
v 0.265777 2.605752 -2.624272
v -0.265777 2.605752 -2.624273
v -0.265777 2.605752 2.565821
v 0.265777 2.605752 2.565822
v -0.265777 4.041741 -0.027362
v 0.265777 4.041741 -0.027360
v 0.265777 4.041741 -2.900257
v 0.265777 4.041741 2.900259
v -0.265777 4.041741 2.900257
v -0.265777 4.041741 -2.900258
v -0.265777 4.041741 -2.624273
v 0.265777 4.041741 -2.624271
v 0.265777 4.041741 2.565823
v -0.265777 4.041741 2.565821
v 0.265777 1.526186 -0.027360
v -0.265777 1.526186 -0.027362
v 0.265777 1.526186 -2.624272
v -0.265777 1.526186 -2.624273
v -0.265777 1.526186 2.565821
v 0.265777 1.526186 2.565822
v 0.265777 1.526186 -2.900257
v 0.265777 1.526186 2.900258
v -0.265777 1.526186 2.900257
v -0.265777 1.526186 -2.900259
v 0.265777 0.986403 -0.027361
v -0.265777 0.986403 -0.027362
v 0.265777 0.986403 -2.624272
v -0.265777 0.986403 -2.624273
v -0.265777 0.986403 2.565821
v 0.265777 0.986403 2.565822
v 0.265777 0.986402 -2.900258
v 0.265777 0.986402 2.900258
v -0.265777 0.986402 2.900257
v -0.265777 0.986402 -2.900259
v 0.265777 0.123472 -0.420498
v 0.265777 5.519614 -0.420496
v 0.265777 2.821543 -0.420497
v 0.265777 5.261939 -0.420496
v -0.265777 0.123472 -0.420499
v -0.265777 5.519614 -0.420498
v -0.265777 2.821543 -0.420499
v -0.265777 5.261939 -0.420498
v -0.265777 0.446619 -0.420499
v 0.265777 0.446619 -0.420498
v -0.265777 2.605752 -0.420499
v 0.265777 2.605752 -0.420497
v -0.265777 4.041741 -0.420498
v 0.265777 4.041741 -0.420497
v 0.265777 1.526186 -0.420497
v -0.265777 1.526186 -0.420499
v -0.265777 0.986403 -0.420499
v 0.265777 0.986403 -0.420497
vt 0.096361 0.297342
vt 0.042654 0.296548
vt 0.081196 0.300326
vt 0.130222 0.301048
vt 0.131166 0.901113
vt 0.158621 0.857938
vt 0.115021 0.857759
vt 0.083902 0.900959
vt 0.129694 0.875575
vt 0.082158 0.875397
vt 0.113576 0.833949
vt 0.828346 0.837196
vt 0.826061 0.860666
vt 0.861076 0.860810
vt 0.863542 0.837356
vt 0.954310 0.350048
vt 0.958826 0.310091
vt 0.918702 0.312655
vt 0.914859 0.349214
vt 0.908499 0.755383
vt 0.923192 0.625372
vt 0.888235 0.602472
vt 0.875576 0.722887
vt 0.853365 0.580169
vt 0.851227 0.602135
vt 0.890542 0.580523
vt 0.062936 0.593742
vt 0.064587 0.617938
vt 0.099095 0.595294
vt 0.097740 0.572974
vt 0.113474 0.594203
vt 0.114867 0.618373
vt 0.560465 0.598279
vt 0.559599 0.622224
vt 0.501484 0.621721
vt 0.502057 0.597747
vt 0.144112 0.573415
vt 0.145249 0.595713
vt 0.500381 0.598944
vt 0.500902 0.576813
vt 0.157408 0.834148
vt 0.494243 0.859310
vt 0.494800 0.835681
vt 0.550373 0.877152
vt 0.549456 0.902477
vt 0.494772 0.902299
vt 0.495379 0.876946
vt 0.544749 0.859516
vt 0.571102 0.304360
vt 0.509097 0.303443
vt 0.507272 0.306598
vt 0.563961 0.307433
vt 0.554858 0.753213
vt 0.498347 0.752866
vt 0.891748 0.903593
vt 0.894590 0.878443
vt 0.839496 0.722643
vt 0.073618 0.750260
vt 0.106521 0.717687
vt 0.122487 0.750560
vt 0.856506 0.878300
vt 0.869379 0.755143
vt 0.915961 0.309457
vt 0.879461 0.312077
vt 0.853876 0.903470
vt 0.925878 0.601612
vt 0.882978 0.625024
vt 0.885464 0.601243
vt 0.554569 0.577324
vt 0.553800 0.599430
vt 0.545571 0.835911
vt 0.562678 0.344280
vt 0.875899 0.348669
vt 0.911780 0.349453
vt 0.132119 0.338247
vt 0.506402 0.343491
vt 0.569644 0.344661
vt 0.508131 0.343799
vt 0.098709 0.338065
vt 0.045436 0.337319
vt 0.083456 0.337566
vt 0.946924 0.415401
vt 0.908561 0.409116
vt 0.151484 0.717991
vt 0.090770 0.458095
vt 0.138259 0.458651
vt 0.939728 0.479070
vt 0.898283 0.478593
vt 0.564935 0.474760
vt 0.505015 0.474071
vt 0.106284 0.469486
vt 0.054415 0.468890
vt 0.864366 0.467156
vt 0.902413 0.467601
vt 0.870064 0.408621
vt 0.049986 0.403977
vt 0.087157 0.398562
vt 0.102547 0.404647
vt 0.567258 0.410565
vt 0.506553 0.409792
vt 0.904944 0.414866
vt 0.135226 0.399180
vt 0.504978 0.403930
vt 0.560578 0.404645
vt 0.503587 0.462930
vt 0.558527 0.463574
vt 0.497519 0.720331
vt 0.549580 0.720683
vt 0.199178 0.736307
vt 0.192833 0.955010
vt 0.494997 0.960407
vt 0.497093 0.742189
vt 0.542124 0.743078
vt 0.540670 0.961223
vt 0.796028 0.965784
vt 0.793911 0.748048
vt 0.497763 0.756604
vt 0.495564 0.986949
vt 0.176864 0.981329
vt 0.183788 0.750445
vt 0.502099 0.302559
vt 0.500270 0.494087
vt 0.191678 0.487335
vt 0.197434 0.295390
vt 0.544998 0.312093
vt 0.543785 0.494054
vt 0.791493 0.499476
vt 0.789727 0.317834
vt 0.211712 0.304275
vt 0.206420 0.486669
vt 0.499484 0.493084
vt 0.501232 0.311067
vt 0.499899 0.532963
vt 0.190509 0.526297
vt 0.543539 0.530958
vt 0.791852 0.536315
vt 0.205347 0.523663
vt 0.499130 0.530001
vt 0.214310 0.214720
vt 0.502090 0.221693
vt 0.545594 0.222747
vt 0.788860 0.228641
vt 0.502996 0.208605
vt 0.200257 0.201235
vt 0.503882 0.115826
vt 0.203045 0.108263
vt 0.546183 0.134464
vt 0.788003 0.140507
vt 0.216877 0.126234
vt 0.502938 0.133383
vt 0.803596 0.123361
vt 0.804595 0.215946
vt 0.548755 0.209718
vt 0.549354 0.116969
vt 0.805607 0.309701
vt 0.548148 0.303643
vt 0.808089 0.539603
vt 0.810497 0.762740
vt 0.545215 0.757535
vt 0.546660 0.533970
vt 0.807670 0.500814
vt 0.546911 0.495108
vt 0.812978 0.992546
vt 0.543728 0.987798
vn 0.0000 -1.0000 0.0000
vn 0.0000 1.0000 0.0000
vn 1.0000 0.0000 0.0000
vn -0.0000 -0.0000 1.0000
vn -1.0000 0.0000 0.0000
vn 0.0000 0.0000 -1.0000
usemtl Material
s off
f 41/1/1 2/2/1 3/3/1 44/4/1
f 42/5/2 45/6/2 7/7/2 6/8/2
f 48/9/3 42/5/3 6/8/3 20/10/3
f 20/10/4 6/8/4 7/7/4 21/11/4
f 32/12/5 26/13/5 8/14/5 22/15/5
f 33/16/6 1/17/6 4/18/6 36/19/6
f 63/20/6 9/21/6 12/22/6 66/23/6
f 58/24/5 27/25/5 12/22/5 54/26/5
f 52/27/4 10/28/4 11/29/4 53/30/4
f 60/31/3 43/32/3 10/28/3 52/27/3
f 102/33/3 93/34/3 18/35/3 55/36/3
f 59/37/5 46/38/5 17/39/5 56/40/5
f 47/41/5 45/6/5 16/42/5 23/43/5
f 94/44/3 92/45/3 15/46/3 24/47/3
f 92/45/2 96/48/2 16/42/2 15/46/2
f 91/49/1 13/50/1 14/51/1 95/52/1
f 104/53/3 94/44/3 24/47/3 62/54/3
f 5/55/6 19/56/6 22/15/6 8/14/6
f 67/57/5 32/12/5 22/15/5 66/23/5
f 64/58/4 20/10/4 21/11/4 65/59/4
f 69/60/3 48/9/3 20/10/3 64/58/3
f 63/20/3 19/56/3 31/61/3 68/62/3
f 1/17/1 28/63/1 25/64/1 4/18/1
f 5/55/2 8/14/2 26/13/2 29/65/2
f 19/56/3 5/55/3 29/65/3 31/61/3
f 51/66/3 9/21/3 30/67/3 57/68/3
f 101/69/5 97/70/5 27/25/5 58/24/5
f 98/71/5 96/48/5 26/13/5 32/12/5
f 95/52/5 99/72/5 40/73/5 25/64/5
f 1/17/3 33/16/3 39/74/3 28/63/3
f 44/4/5 49/75/5 38/76/5 14/51/5
f 91/49/3 100/77/3 37/78/3 13/50/3
f 41/1/3 50/79/3 34/80/3 2/2/3
f 2/2/4 34/80/4 35/81/4 3/3/4
f 25/64/5 40/73/5 36/19/5 4/18/5
f 87/82/6 33/16/6 36/19/6 90/83/6
f 13/50/3 37/78/3 50/79/3 41/1/3
f 3/3/5 35/81/5 49/75/5 44/4/5
f 65/59/5 21/11/5 47/41/5 70/84/5
f 21/11/5 7/7/5 45/6/5 47/41/5
f 53/30/5 11/29/5 46/38/5 59/37/5
f 55/36/3 18/35/3 43/32/3 60/31/3
f 24/47/3 15/46/3 42/5/3 48/9/3
f 15/46/2 16/42/2 45/6/2 42/5/2
f 13/50/1 41/1/1 44/4/1 14/51/1
f 79/85/5 53/30/5 59/37/5 75/86/5
f 9/21/6 51/66/6 54/26/6 12/22/6
f 77/87/3 51/66/3 57/68/3 73/88/3
f 105/89/3 102/33/3 55/36/3 71/90/3
f 76/91/3 60/31/3 52/27/3 78/92/3
f 78/92/4 52/27/4 53/30/4 79/85/4
f 74/93/5 58/24/5 54/26/5 80/94/5
f 11/29/5 65/59/5 70/84/5 46/38/5
f 9/21/3 63/20/3 68/62/3 30/67/3
f 43/32/3 69/60/3 64/58/3 10/28/3
f 10/28/4 64/58/4 65/59/4 11/29/4
f 27/25/5 67/57/5 66/23/5 12/22/5
f 93/34/3 104/53/3 62/54/3 18/35/3
f 19/56/6 63/20/6 66/23/6 22/15/6
f 84/95/5 74/93/5 80/94/5 90/83/5
f 88/96/4 78/92/4 79/85/4 89/97/4
f 86/98/3 76/91/3 78/92/3 88/96/3
f 108/99/3 105/89/3 71/90/3 81/100/3
f 87/82/3 77/87/3 73/88/3 83/101/3
f 89/97/5 79/85/5 75/86/5 85/102/5
f 51/66/6 77/87/6 80/94/6 54/26/6
f 35/81/5 89/97/5 85/102/5 49/75/5
f 33/16/3 87/82/3 83/101/3 39/74/3
f 100/77/3 108/99/3 81/100/3 37/78/3
f 50/79/3 86/98/3 88/96/3 34/80/3
f 34/80/4 88/96/4 89/97/4 35/81/4
f 40/73/5 84/95/5 90/83/5 36/19/5
f 77/87/6 87/82/6 90/83/6 80/94/6
f 38/76/5 82/103/5 107/104/5 99/72/5
f 82/103/5 72/105/5 106/106/5 107/104/5
f 17/39/5 61/107/5 103/108/5 97/70/5
f 72/105/5 56/40/5 101/69/5 106/106/5
f 28/63/3 39/74/3 100/77/3 91/49/3
f 14/51/5 38/76/5 99/72/5 95/52/5
f 23/43/5 16/42/5 96/48/5 98/71/5
f 56/40/5 17/39/5 97/70/5 101/69/5
f 61/107/5 23/43/5 98/71/5 103/108/5
f 28/63/1 91/49/1 95/52/1 25/64/1
f 29/65/2 26/13/2 96/48/2 92/45/2
f 31/61/3 29/65/3 92/45/3 94/44/3
f 57/68/3 30/67/3 93/34/3 102/33/3
usemtl Material_vidrio.jpg
f 70/109/5 47/110/5 23/111/5 61/112/5
f 103/113/5 98/114/5 32/115/5 67/116/5
f 62/117/3 24/118/3 48/119/3 69/120/3
f 71/121/3 55/122/3 60/123/3 76/124/3
f 106/125/5 101/126/5 58/127/5 74/128/5
f 75/129/5 59/130/5 56/131/5 72/132/5
f 18/133/3 62/117/3 69/120/3 43/134/3
f 97/135/5 103/113/5 67/116/5 27/136/5
f 46/137/5 70/109/5 61/112/5 17/138/5
f 85/139/5 75/129/5 72/132/5 82/140/5
f 107/141/5 106/125/5 74/128/5 84/142/5
f 81/143/3 71/121/3 76/124/3 86/144/3
f 37/145/3 81/143/3 86/144/3 50/146/3
f 99/147/5 107/141/5 84/142/5 40/148/5
f 49/149/5 85/139/5 82/140/5 38/150/5
f 39/151/3 83/152/3 108/153/3 100/154/3
f 83/152/3 73/155/3 105/156/3 108/153/3
f 30/157/3 68/158/3 104/159/3 93/160/3
f 73/155/3 57/161/3 102/162/3 105/156/3
f 68/158/3 31/163/3 94/164/3 104/159/3
