# Blender v2.79 (sub 0) OBJ File: 'piscina.blend'
# www.blender.org
mtllib piscina.mtl
o Cube
v 5.299287 0.699788 -3.839477
v 5.780387 -2.379709 2.350980
v 5.330612 0.499280 -3.436413
v 5.751355 -2.193878 1.977420
v 5.506422 0.706565 -3.852203
v 5.987523 -2.372932 2.338254
v 5.537746 0.506058 -3.449139
v 5.958491 -2.187101 1.964694
v 5.741616 -2.131538 1.852102
v 5.575673 -0.260221 2.795903
v 5.948752 -2.124760 1.839375
v 5.344234 0.412079 -3.261119
v 5.551370 0.418856 -3.273845
v 5.178296 2.283396 -2.317318
v -2.688156 -0.530615 3.303627
v -3.085536 2.013001 -1.809593
v 6.703060 -2.162738 1.918948
v 6.732091 -2.348569 2.292508
v -3.243172 0.420276 -3.314633
v -4.000098 0.395509 -3.268127
v 6.250990 0.730928 -3.897949
v 6.246796 2.686207 -2.924950
v -2.762072 -2.659221 2.875824
v -3.518999 -2.683988 2.922330
v 6.727891 -0.393290 3.265507
v -3.968774 0.195002 -2.865063
v -3.523197 -0.728707 3.895327
v -4.004296 2.350789 -2.295129
v 6.698860 -0.207459 2.891947
v -3.247369 2.375556 -2.341634
v -2.766270 -0.703941 3.848822
v -3.972972 2.150281 -1.892065
v 5.506422 0.706565 -3.852203
v 5.299287 0.699788 -3.839477
v 5.987523 -2.372932 2.338254
v 5.780387 -2.379709 2.350980
v 5.502228 2.661845 -2.879204
v 5.295092 2.655067 -2.866478
v 5.983323 -0.417652 3.311253
v 5.776187 -0.424430 3.323979
v 5.747156 -0.238599 2.950419
v 5.330612 0.499280 -3.436413
v 6.282315 0.530420 -3.494884
v -3.955151 0.107800 -2.689770
v 6.278121 2.485699 -2.521886
v -3.959349 2.063080 -1.716772
v 5.326416 2.454560 -2.463414
v 5.344234 0.412079 -3.261119
v 5.533552 2.461337 -2.476140
v -2.937416 2.184165 -1.955688
v -3.211847 0.219769 -2.911568
v 6.693320 -2.100398 1.793630
v 6.684611 -0.145266 2.766906
v 5.575673 -0.260221 2.795903
v -3.548031 -2.498157 2.548769
v -3.552229 -0.542877 3.521767
v 5.751355 -2.193878 1.977420
v 5.954291 -0.231822 2.937693
v -2.516674 -0.508993 3.458143
v -2.791104 -2.473390 2.502264
v -2.964543 0.429393 -3.331752
v -2.483444 -2.650104 2.858706
v -2.968740 2.384673 -2.358753
v -2.487642 -0.694824 3.831703
v -3.216044 2.175048 -1.938570
v -2.933218 0.228885 -2.928687
v -2.795302 -0.518110 3.475262
v -2.512475 -2.464273 2.485145
v -3.198224 0.132567 -2.736275
v -2.805041 -0.455769 3.349943
v 5.537746 0.506058 -3.449139
v 5.958491 -2.187101 1.964694
v 5.940043 -0.169628 2.812652
v 5.551370 0.418856 -3.273845
v -3.557770 -2.435816 2.423451
v -3.561968 -0.480536 3.396449
v 5.741616 -2.131538 1.852102
v 6.295938 0.443219 -3.319591
v 6.287234 2.398351 -2.346315
v 5.178296 2.283396 -2.317318
v -2.800843 -2.411049 2.376946
v -3.202421 2.087847 -1.763277
v 5.542666 2.373988 -2.300570
v 5.948752 -2.124760 1.839375
v -2.688156 -0.530615 3.303627
v -2.522215 -2.401933 2.359827
v -2.919595 0.141684 -2.753394
v -3.085536 2.013001 -1.809593
vt 0.000000 0.000000
vt 0.000000 1.000000
vt 0.000000 1.000000
vt 0.000000 0.000000
vt 1.000000 1.000000
vt 1.000000 1.000000
vt 1.000000 0.000000
vt 1.000000 0.000000
vt 0.000000 0.000000
vt 0.000000 0.000000
vt 0.000000 0.000000
vt 0.000000 0.000000
vt 0.000000 0.000000
vt 0.000000 0.000000
vt 0.000000 0.000000
vt 0.000000 0.000000
vt 0.000000 0.000000
vt 0.000000 0.000000
vt 0.000000 0.000000
vt 0.000000 0.000000
vt 0.000000 0.000000
vt 0.000000 0.000000
vt 0.000000 0.000000
vt 0.000000 0.000000
vt 0.000000 0.000000
vt 0.000000 0.000000
vt 0.000000 0.000000
vt 0.000000 0.000000
vt 0.000000 0.000000
vt 0.000000 0.000000
vt 0.000000 0.000000
vt 0.000000 0.000000
vt 0.000000 0.000000
vt 0.000000 0.000000
vt 0.000000 0.000000
vt 0.000000 0.000000
vt 0.000000 0.000000
vt 0.000000 0.000000
vt 0.000000 0.000000
vt 0.000000 0.000000
vt 0.000000 0.000000
vt 0.000000 0.000000
vt 0.000000 0.000000
vt 0.000000 0.000000
vt 0.000000 0.000000
vt 0.000000 0.000000
vt 0.000000 0.000000
vt 0.000000 0.000000
vt 0.000000 0.000000
vt 0.000000 0.000000
vt 0.000000 0.000000
vt 0.000000 0.000000
vt 0.000000 0.000000
vt 0.000000 0.000000
vt 0.000000 0.000000
vt 0.000000 0.000000
vt 0.000000 0.000000
vt 0.000000 0.000000
vt 0.000000 0.000000
vt 0.000000 0.000000
vt 0.000000 0.000000
vt 0.000000 0.000000
vt 0.000000 0.000000
vt 0.000000 0.000000
vt 0.000000 0.000000
vt 0.000000 0.000000
vt 0.000000 0.000000
vt 0.000000 0.000000
vt 0.000000 0.000000
vt 0.000000 0.000000
vt 0.000000 0.000000
vt 0.000000 0.000000
vt 0.000000 0.000000
vt 0.000000 0.000000
vt 0.000000 0.000000
vt 0.000000 0.000000
vt 0.000000 0.000000
vt 0.000000 0.000000
vt 0.000000 0.000000
vt 0.000000 0.000000
vt 0.000000 0.000000
vt 0.000000 0.000000
vt 0.000000 0.000000
vt 0.000000 0.000000
vt 0.000000 0.000000
vt 0.000000 0.000000
vt 0.000000 0.000000
vt 0.000000 0.000000
vt 0.000000 0.000000
vt 0.000000 0.000000
vt 0.000000 0.000000
vn 0.0000 0.0000 1.0000
vn -0.0019 0.8953 0.4455
vn 0.0019 -0.8953 -0.4455
vn 0.9976 0.0326 -0.0613
vn 0.0694 -0.4443 0.8932
vn -0.9976 -0.0326 0.0613
vn -0.0694 0.4443 -0.8932
vn -0.1644 0.9548 0.2478
vn 0.9963 0.0407 -0.0752
vn 0.1691 0.9850 0.0338
vn 0.5975 0.7355 0.3194
vn 0.9976 0.0345 -0.0604
vn -0.2351 0.8628 0.4475
vn -0.1405 0.8005 0.5826
vn 0.9983 0.0284 -0.0505
vn 0.2250 0.7113 0.6659
vn 0.0266 0.6356 0.7716
vn -0.0385 0.9946 -0.0965
usemtl Material
s off
f 14/1/1 10/2/1 54/3/1 80/4/1
f 10/2/1 15/5/1 85/6/1 54/3/1
f 15/5/1 16/7/1 88/8/1 85/6/1
f 14/1/2 16/7/2 15/5/2 10/2/2
f 16/7/1 14/1/1 80/4/1 88/8/1
usemtl Material.001
f 8/9/3 6/10/3 2/11/3 4/12/3
f 5/13/3 7/14/3 3/15/3 1/16/3
f 11/17/3 8/9/3 4/12/3 9/18/3
f 13/19/3 11/17/3 9/18/3 12/20/3
f 7/14/3 13/19/3 12/20/3 3/15/3
f 2/11/1 6/10/1 35/21/1 36/22/1
f 6/10/1 8/9/1 72/23/1 35/21/1
f 5/13/1 1/16/1 34/24/1 33/25/1
f 7/14/1 5/13/1 33/25/1 71/26/1
f 1/16/1 3/15/1 42/27/1 34/24/1
f 9/18/1 4/12/1 57/28/1 77/29/1
f 11/17/1 13/19/1 74/30/1 84/31/1
f 8/9/1 11/17/1 84/31/1 72/23/1
f 3/15/1 12/20/1 48/32/1 42/27/1
f 13/19/1 7/14/1 71/26/1 74/30/1
f 12/20/1 9/18/1 77/29/1 48/32/1
f 4/12/1 2/11/1 36/22/1 57/28/1
f 60/33/3 23/34/3 24/35/3 55/36/3
f 67/37/2 56/38/2 27/39/2 31/40/2
f 17/41/4 29/42/4 25/43/4 18/44/4
f 23/34/5 31/40/5 27/39/5 24/35/5
f 26/45/6 32/46/6 28/47/6 20/48/6
f 30/49/7 19/50/7 20/48/7 28/47/7
f 37/51/7 33/25/7 34/24/7 38/52/7
f 35/21/5 39/53/5 40/54/5 36/22/5
f 58/55/2 41/56/2 40/54/2 39/53/2
f 37/51/2 38/52/2 47/57/2 49/58/2
f 44/59/6 46/60/6 32/46/6 26/45/6
f 21/61/4 22/62/4 45/63/4 43/64/4
f 30/49/2 28/47/2 32/46/2 65/65/2
f 19/50/3 51/66/3 26/45/3 20/48/3
f 24/35/6 27/39/6 56/38/6 55/36/6
f 73/67/8 54/68/8 41/56/8 58/55/8
f 52/69/9 53/70/9 29/42/9 17/41/9
f 70/71/2 76/72/2 56/38/2 67/37/2
f 81/73/3 60/33/3 55/36/3 75/74/3
f 86/75/3 68/76/3 60/33/3 81/73/3
f 85/77/10 70/71/10 67/37/10 59/78/10
f 61/79/3 66/80/3 51/66/3 19/50/3
f 63/81/2 30/49/2 65/65/2 50/82/2
f 63/81/7 61/79/7 19/50/7 30/49/7
f 62/83/5 64/84/5 31/40/5 23/34/5
f 59/78/2 67/37/2 31/40/2 64/84/2
f 68/76/3 62/83/3 23/34/3 60/33/3
f 53/70/2 73/67/2 58/55/2 29/42/2
f 52/69/3 17/41/3 72/23/3 84/31/3
f 22/62/2 37/51/2 49/58/2 45/63/2
f 21/61/3 43/64/3 71/26/3 33/25/3
f 17/41/3 18/44/3 35/21/3 72/23/3
f 29/42/2 58/55/2 39/53/2 25/43/2
f 18/44/5 25/43/5 39/53/5 35/21/5
f 22/62/7 21/61/7 33/25/7 37/51/7
f 78/85/3 52/69/3 84/31/3 74/30/3
f 79/86/2 83/87/2 73/67/2 53/70/2
f 88/88/11 82/89/11 70/71/11 85/77/11
f 87/90/3 86/75/3 81/73/3 69/91/3
f 69/91/3 81/73/3 75/74/3 44/59/3
f 82/89/2 46/60/2 76/72/2 70/71/2
f 78/85/12 79/86/12 53/70/12 52/69/12
f 83/87/13 80/4/13 54/68/13 73/67/13
f 55/36/6 56/38/6 76/72/6 75/74/6
f 49/58/14 47/57/14 80/4/14 83/87/14
f 43/64/15 45/63/15 79/86/15 78/85/15
f 65/65/2 32/46/2 46/60/2 82/89/2
f 51/66/3 69/91/3 44/59/3 26/45/3
f 66/80/3 87/90/3 69/91/3 51/66/3
f 50/82/16 65/65/16 82/89/16 88/88/16
f 45/63/2 49/58/2 83/87/2 79/86/2
f 43/64/3 78/85/3 74/30/3 71/26/3
f 75/74/6 76/72/6 46/60/6 44/59/6
f 47/57/17 50/82/17 88/88/17 80/4/17
f 42/27/3 48/32/3 87/90/3 66/80/3
f 48/32/3 77/29/3 86/75/3 87/90/3
f 57/28/3 36/22/3 62/83/3 68/76/3
f 41/56/2 59/78/2 64/84/2 40/54/2
f 36/22/5 40/54/5 64/84/5 62/83/5
f 38/52/7 34/24/7 61/79/7 63/81/7
f 38/52/2 63/81/2 50/82/2 47/57/2
f 34/24/3 42/27/3 66/80/3 61/79/3
f 54/68/18 85/77/18 59/78/18 41/56/18
f 77/29/3 57/28/3 68/76/3 86/75/3
