# Blender v2.79 (sub 0) OBJ File: 'piscina.blend'
# www.blender.org
mtllib piscina.mtl
o Cube
v -4.044600 -1.934833 -0.795928
v -4.088548 3.507293 -5.087540
v -4.047462 -1.580493 -1.075357
v -4.085896 3.178891 -4.828564
v -4.251753 -1.944605 -0.806196
v -4.295701 3.497522 -5.097809
v -4.254613 -1.590264 -1.085626
v -4.293048 3.169119 -4.838833
v -4.085007 3.068721 -4.741686
v -4.065559 4.370613 -3.090978
v -4.292160 3.058949 -4.751955
v -4.048705 -1.426390 -1.196881
v -4.255858 -1.436161 -1.207150
v -4.029262 -0.124497 0.453825
v 4.198943 4.760436 -2.681280
v 4.235244 0.265326 0.863524
v -5.037678 3.133996 -4.875746
v -5.040330 3.462399 -5.134722
v 4.498555 -1.531866 -0.372416
v 5.255544 -1.496160 -0.334890
v -4.996381 -1.979727 -0.843111
v -5.144836 -0.631220 0.868427
v 4.454608 3.910261 -4.664029
v 5.211596 3.945967 -4.626502
v -5.188780 4.810906 -3.423184
v 5.252682 -1.141820 -0.614320
v 5.063145 5.294472 -2.914962
v 5.107092 -0.147653 1.376648
v -5.186128 4.482504 -3.164209
v 4.350103 -0.183359 1.339121
v 4.306156 5.258767 -2.952489
v 5.104230 0.206687 1.097219
v -4.251753 -1.944605 -0.806196
v -4.044600 -1.934833 -0.795928
v -4.295701 3.497522 -5.097809
v -4.088548 3.507293 -5.087540
v -4.400208 -0.596098 0.905342
v -4.193056 -0.586326 0.915611
v -4.444151 4.846029 -3.386271
v -4.236998 4.855800 -3.376001
v -4.234347 4.527398 -3.117026
v -4.047462 -1.580493 -1.075357
v -4.999242 -1.625387 -1.122540
v 5.251437 -0.987716 -0.735844
v -5.147697 -0.276880 0.588999
v 5.102986 0.360790 0.975695
v -4.195916 -0.231987 0.636181
v -4.048705 -1.426390 -1.196881
v -4.403069 -0.241757 0.625912
v 4.068589 0.157838 1.045879
v 4.495693 -1.177526 -0.651845
v -5.036788 3.023827 -4.788868
v -5.180728 4.372547 -3.077107
v -4.065559 4.370613 -3.090978
v 5.214249 3.617564 -4.367527
v 5.065797 4.966070 -2.655988
v -4.085896 3.178891 -4.828564
v -4.441499 4.517627 -3.127295
v 4.030158 4.917221 -2.707327
v 4.457261 3.581859 -4.405053
v 4.219903 -1.545010 -0.386230
v 4.175957 3.897118 -4.677841
v 4.071452 -0.196502 1.325307
v 4.027505 5.245623 -2.966303
v 4.347240 0.170982 1.059692
v 4.217043 -1.190669 -0.665659
v 4.308808 4.930364 -2.693514
v 4.178608 3.568715 -4.418866
v 4.494448 -1.023423 -0.773370
v 4.309696 4.820195 -2.606636
v -4.254613 -1.590264 -1.085626
v -4.293048 3.169119 -4.838833
v -4.436100 4.407670 -3.040193
v -4.255858 -1.436161 -1.207150
v 5.215137 3.507395 -4.280648
v 5.066684 4.855901 -2.569109
v -4.085007 3.068721 -4.741686
v -5.000487 -1.471285 -1.244064
v -5.144432 -0.122564 0.467697
v -4.029262 -0.124497 0.453825
v 4.458151 3.471689 -4.318174
v 4.345997 0.325085 0.938168
v -4.399803 -0.087441 0.504610
v -4.292160 3.058949 -4.751955
v 4.198943 4.760436 -2.681280
v 4.179499 3.458546 -4.331988
v 4.215798 -1.036566 -0.787184
v 4.235244 0.265326 0.863524
vt 0.000000 0.000000
vt 0.000000 1.000000
vt 0.000000 1.000000
vt 0.000000 0.000000
vt 1.000000 1.000000
vt 1.000000 1.000000
vt 1.000000 0.000000
vt 1.000000 0.000000
vt 0.000000 0.000000
vt 0.000000 0.000000
vt 0.000000 0.000000
vt 0.000000 0.000000
vt 0.000000 0.000000
vt 0.000000 0.000000
vt 0.000000 0.000000
vt 0.000000 0.000000
vt 0.000000 0.000000
vt 0.000000 0.000000
vt 0.000000 0.000000
vt 0.000000 0.000000
vt 0.000000 0.000000
vt 0.000000 0.000000
vt 0.000000 0.000000
vt 0.000000 0.000000
vt 0.000000 0.000000
vt 0.000000 0.000000
vt 0.000000 0.000000
vt 0.000000 0.000000
vt 0.000000 0.000000
vt 0.000000 0.000000
vt 0.000000 0.000000
vt 0.000000 0.000000
vt 0.000000 0.000000
vt 0.000000 0.000000
vt 0.000000 0.000000
vt 0.000000 0.000000
vt 0.000000 0.000000
vt 0.000000 0.000000
vt 0.000000 0.000000
vt 0.000000 0.000000
vt 0.000000 0.000000
vt 0.000000 0.000000
vt 0.000000 0.000000
vt 0.000000 0.000000
vt 0.000000 0.000000
vt 0.000000 0.000000
vt 0.000000 0.000000
vt 0.000000 0.000000
vt 0.000000 0.000000
vt 0.000000 0.000000
vt 0.000000 0.000000
vt 0.000000 0.000000
vt 0.000000 0.000000
vt 0.000000 0.000000
vt 0.000000 0.000000
vt 0.000000 0.000000
vt 0.000000 0.000000
vt 0.000000 0.000000
vt 0.000000 0.000000
vt 0.000000 0.000000
vt 0.000000 0.000000
vt 0.000000 0.000000
vt 0.000000 0.000000
vt 0.000000 0.000000
vt 0.000000 0.000000
vt 0.000000 0.000000
vt 0.000000 0.000000
vt 0.000000 0.000000
vt 0.000000 0.000000
vt 0.000000 0.000000
vt 0.000000 0.000000
vt 0.000000 0.000000
vt 0.000000 0.000000
vt 0.000000 0.000000
vt 0.000000 0.000000
vt 0.000000 0.000000
vt 0.000000 0.000000
vt 0.000000 0.000000
vt 0.000000 0.000000
vt 0.000000 0.000000
vt 0.000000 0.000000
vt 0.000000 0.000000
vt 0.000000 0.000000
vt 0.000000 0.000000
vt 0.000000 0.000000
vt 0.000000 0.000000
vt 0.000000 0.000000
vt 0.000000 0.000000
vt 0.000000 0.000000
vt 0.000000 0.000000
vt 0.000000 0.000000
vn 0.0000 0.0000 1.0000
vn -0.0680 0.6174 0.7837
vn 0.0680 -0.6174 -0.7837
vn -0.9977 -0.0471 -0.0495
vn -0.0063 0.7852 -0.6192
vn 0.9977 0.0471 0.0495
vn 0.0063 -0.7852 0.6192
vn 0.0834 0.4348 0.8966
vn -0.9975 -0.0591 -0.0387
vn -0.2568 0.2335 0.9378
vn -0.6535 0.4655 0.5969
vn -0.9978 -0.0458 -0.0478
vn 0.1672 0.6113 0.7735
vn 0.0820 0.7317 0.6767
vn -0.9977 -0.0374 -0.0558
vn -0.2717 0.7975 0.5387
vn -0.0646 0.8844 0.4622
vn -0.0542 0.1065 0.9928
usemtl Material
s off
f 14/1/1 10/2/1 54/3/1 80/4/1
f 10/2/1 15/5/1 85/6/1 54/3/1
f 15/5/1 16/7/1 88/8/1 85/6/1
f 14/1/2 16/7/2 15/5/2 10/2/2
f 16/7/1 14/1/1 80/4/1 88/8/1
usemtl Material.001
f 8/9/3 6/10/3 2/11/3 4/12/3
f 5/13/3 7/14/3 3/15/3 1/16/3
f 11/17/3 8/9/3 4/12/3 9/18/3
f 13/19/3 11/17/3 9/18/3 12/20/3
f 7/14/3 13/19/3 12/20/3 3/15/3
f 2/11/1 6/10/1 35/21/1 36/22/1
f 6/10/1 8/9/1 72/23/1 35/21/1
f 5/13/1 1/16/1 34/24/1 33/25/1
f 7/14/1 5/13/1 33/25/1 71/26/1
f 1/16/1 3/15/1 42/27/1 34/24/1
f 9/18/1 4/12/1 57/28/1 77/29/1
f 11/17/1 13/19/1 74/30/1 84/31/1
f 8/9/1 11/17/1 84/31/1 72/23/1
f 3/15/1 12/20/1 48/32/1 42/27/1
f 13/19/1 7/14/1 71/26/1 74/30/1
f 12/20/1 9/18/1 77/29/1 48/32/1
f 4/12/1 2/11/1 36/22/1 57/28/1
f 60/33/3 23/34/3 24/35/3 55/36/3
f 67/37/2 56/38/2 27/39/2 31/40/2
f 17/41/4 29/42/4 25/43/4 18/44/4
f 23/34/5 31/40/5 27/39/5 24/35/5
f 26/45/6 32/46/6 28/47/6 20/48/6
f 30/49/7 19/50/7 20/48/7 28/47/7
f 37/51/7 33/25/7 34/24/7 38/52/7
f 35/21/5 39/53/5 40/54/5 36/22/5
f 58/55/2 41/56/2 40/54/2 39/53/2
f 37/51/2 38/52/2 47/57/2 49/58/2
f 44/59/6 46/60/6 32/46/6 26/45/6
f 21/61/4 22/62/4 45/63/4 43/64/4
f 30/49/2 28/47/2 32/46/2 65/65/2
f 19/50/3 51/66/3 26/45/3 20/48/3
f 24/35/6 27/39/6 56/38/6 55/36/6
f 73/67/8 54/68/8 41/56/8 58/55/8
f 52/69/9 53/70/9 29/42/9 17/41/9
f 70/71/2 76/72/2 56/38/2 67/37/2
f 81/73/3 60/33/3 55/36/3 75/74/3
f 86/75/3 68/76/3 60/33/3 81/73/3
f 85/77/10 70/71/10 67/37/10 59/78/10
f 61/79/3 66/80/3 51/66/3 19/50/3
f 63/81/2 30/49/2 65/65/2 50/82/2
f 63/81/7 61/79/7 19/50/7 30/49/7
f 62/83/5 64/84/5 31/40/5 23/34/5
f 59/78/2 67/37/2 31/40/2 64/84/2
f 68/76/3 62/83/3 23/34/3 60/33/3
f 53/70/2 73/67/2 58/55/2 29/42/2
f 52/69/3 17/41/3 72/23/3 84/31/3
f 22/62/2 37/51/2 49/58/2 45/63/2
f 21/61/3 43/64/3 71/26/3 33/25/3
f 17/41/3 18/44/3 35/21/3 72/23/3
f 29/42/2 58/55/2 39/53/2 25/43/2
f 18/44/5 25/43/5 39/53/5 35/21/5
f 22/62/7 21/61/7 33/25/7 37/51/7
f 78/85/3 52/69/3 84/31/3 74/30/3
f 79/86/2 83/87/2 73/67/2 53/70/2
f 88/88/11 82/89/11 70/71/11 85/77/11
f 87/90/3 86/75/3 81/73/3 69/91/3
f 69/91/3 81/73/3 75/74/3 44/59/3
f 82/89/2 46/60/2 76/72/2 70/71/2
f 78/85/12 79/86/12 53/70/12 52/69/12
f 83/87/13 80/4/13 54/68/13 73/67/13
f 55/36/6 56/38/6 76/72/6 75/74/6
f 49/58/14 47/57/14 80/4/14 83/87/14
f 43/64/15 45/63/15 79/86/15 78/85/15
f 65/65/2 32/46/2 46/60/2 82/89/2
f 51/66/3 69/91/3 44/59/3 26/45/3
f 66/80/3 87/90/3 69/91/3 51/66/3
f 50/82/16 65/65/16 82/89/16 88/88/16
f 45/63/2 49/58/2 83/87/2 79/86/2
f 43/64/3 78/85/3 74/30/3 71/26/3
f 75/74/6 76/72/6 46/60/6 44/59/6
f 47/57/17 50/82/17 88/88/17 80/4/17
f 42/27/3 48/32/3 87/90/3 66/80/3
f 48/32/3 77/29/3 86/75/3 87/90/3
f 57/28/3 36/22/3 62/83/3 68/76/3
f 41/56/2 59/78/2 64/84/2 40/54/2
f 36/22/5 40/54/5 64/84/5 62/83/5
f 38/52/7 34/24/7 61/79/7 63/81/7
f 38/52/2 63/81/2 50/82/2 47/57/2
f 34/24/3 42/27/3 66/80/3 61/79/3
f 54/68/18 85/77/18 59/78/18 41/56/18
f 77/29/3 57/28/3 68/76/3 86/75/3
