# Blender v2.79 (sub 0) OBJ File: 'lapizNuevo.blend'
# www.blender.org
mtllib lapizNuevo.mtl
o Círculo
v 0.319751 -2.005561 2.559081
v 0.392927 -2.123868 2.451380
v 0.295207 -2.229170 2.383380
v 0.124311 -2.216166 2.423082
v 0.051135 -2.097859 2.530782
v 0.148855 -1.992556 2.598782
v -0.582569 2.578146 -3.086545
v -0.520805 2.478289 -3.177449
v -0.603286 2.389409 -3.234844
v -0.747530 2.400385 -3.201334
v -0.809294 2.500242 -3.110430
v -0.726814 2.589122 -3.053035
v 0.410314 1.729105 -2.502689
v -0.120747 1.156837 -2.872234
v -1.453886 1.869119 -2.060807
v -0.916098 2.442719 -1.701628
v -1.049807 1.215826 -2.655534
v 0.012639 2.372046 -1.917386
v -0.443084 2.397264 -3.096838
v -0.851729 2.436229 -3.005860
v -0.531175 2.539686 -2.967184
v -0.560723 2.270497 -3.178698
v -0.736906 2.555341 -2.919390
v -0.762219 2.291514 -3.137601
v -0.605410 2.484727 -3.157795
v -0.630947 2.526014 -3.120209
v -0.639513 2.447978 -3.181526
v -0.699153 2.452517 -3.167671
v -0.724690 2.493804 -3.130085
v -0.690587 2.530552 -3.106354
v -0.443084 2.397264 -3.096838
v -0.854544 2.428574 -3.001250
v -0.531175 2.539686 -2.967184
v -0.560723 2.270497 -3.178698
v -0.736906 2.555341 -2.919390
v -0.766453 2.286152 -3.130904
v -0.448766 2.423985 -3.130051
v -0.860227 2.455295 -3.034463
v -0.536858 2.566407 -3.000397
v -0.566405 2.297218 -3.211911
v -0.742588 2.582062 -2.952603
v -0.772135 2.312873 -3.164117
v -0.614784 2.485440 -3.155617
v -0.636307 2.520238 -3.123939
v -0.643527 2.454467 -3.175618
v -0.693793 2.458292 -3.163941
v -0.715316 2.493091 -3.132263
v -0.686574 2.524064 -3.112262
v -0.448766 2.423985 -3.130051
v -0.860227 2.455295 -3.034463
v -0.536858 2.566407 -3.000397
v -0.566405 2.297218 -3.211911
v -0.742588 2.582062 -2.952603
v -0.772135 2.312873 -3.164117
v -0.524073 2.478537 -3.176690
v -0.584438 2.576132 -3.087844
v -0.604685 2.391670 -3.232785
v -0.745662 2.402398 -3.200034
v -0.806027 2.499993 -3.111188
v -0.725415 2.586860 -3.055093
v -0.448766 2.423985 -3.130051
v -0.860227 2.455295 -3.034463
v -0.536858 2.566407 -3.000397
v -0.566405 2.297218 -3.211911
v -0.742588 2.582062 -2.952603
v -0.772135 2.312873 -3.164117
v -0.530361 2.479016 -3.175229
v -0.588033 2.572258 -3.090346
v -0.607378 2.396023 -3.228822
v -0.742067 2.406272 -3.197532
v -0.799739 2.499514 -3.112649
v -0.722722 2.582507 -3.059056
v -0.448766 2.423985 -3.130051
v -0.860227 2.455295 -3.034463
v -0.536858 2.566407 -3.000397
v -0.566405 2.297218 -3.211911
v -0.742588 2.582062 -2.952603
v -0.772135 2.312873 -3.164117
v -0.499982 2.476704 -3.182286
v -0.570662 2.590976 -3.078259
v -0.594370 2.374993 -3.247967
v -0.759437 2.387554 -3.209620
v -0.830118 2.501826 -3.105592
v -0.735730 2.603537 -3.039911
v -0.448766 2.423985 -3.130051
v -0.860227 2.455295 -3.034463
v -0.536858 2.566407 -3.000397
v -0.566405 2.297218 -3.211911
v -0.742588 2.582062 -2.952603
v -0.772135 2.312873 -3.164117
v 0.692193 -2.665856 1.879241
v -0.103158 -1.379974 3.049847
v -0.236544 -2.595183 2.094999
v 1.223254 -2.093589 2.248785
v -0.634220 -1.952242 2.680302
v 0.825579 -1.450648 2.834089
v -0.689901 2.660454 -3.351090
v -0.697679 2.673028 -3.339643
v -0.700287 2.649261 -3.358318
v -0.718452 2.650643 -3.354098
v -0.726230 2.663218 -3.342651
v -0.715843 2.674410 -3.335423
v -0.688969 2.656073 -3.345644
v -0.725298 2.658837 -3.337205
v -0.696747 2.668647 -3.334197
v -0.699356 2.644880 -3.352872
v -0.714911 2.670029 -3.329977
v -0.717520 2.646262 -3.348652
v 0.294441 -2.225568 2.378903
v 0.148089 -1.988955 2.594305
v 0.123545 -2.212564 2.418605
v 0.392161 -2.120266 2.446903
v 0.050369 -2.094257 2.526306
v 0.318985 -2.001959 2.554604
v 1.205481 -2.010013 2.144904
v -0.651993 -1.868666 2.576421
v 0.807806 -1.367072 2.730207
v 0.674420 -2.582281 1.775359
v -0.120932 -1.296399 2.945965
v -0.254317 -2.511607 1.991117
v 1.191668 -1.945060 2.064170
v -0.665806 -1.803713 2.495686
v 0.793993 -1.302119 2.649473
v 0.660607 -2.517328 1.694625
v -0.134745 -1.231446 2.865231
v -0.268131 -2.446655 1.910383
v 1.178193 -1.881698 1.985413
v -0.679281 -1.740351 2.416929
v 0.780518 -1.238757 2.570716
v 0.647132 -2.453966 1.615868
v -0.148219 -1.168083 2.786474
v -0.281605 -2.383292 1.831626
v 0.689736 -2.654304 1.864882
v -0.105615 -1.368422 3.035488
v -0.239001 -2.583631 2.080640
v 1.220798 -2.082036 2.234426
v -0.636676 -1.940690 2.665943
v 0.823122 -1.439095 2.819730
v 0.692193 -2.665856 1.879241
v -0.103158 -1.379974 3.049847
v -0.236544 -2.595183 2.094999
v 1.223254 -2.093589 2.248785
v -0.634220 -1.952242 2.680302
v 0.825579 -1.450648 2.834089
v 0.692193 -2.665856 1.879241
v -0.103158 -1.379974 3.049847
v -0.236544 -2.595183 2.094999
v 1.223254 -2.093589 2.248785
v -0.634220 -1.952242 2.680302
v 0.825579 -1.450648 2.834089
v 0.397596 -2.427772 2.932573
v 0.377119 -2.394666 2.962711
v 0.373685 -2.425953 2.938128
v 0.411269 -2.413039 2.942087
v 0.363447 -2.409400 2.953197
v 0.401030 -2.396486 2.957156
v -0.147258 -2.968621 2.559602
v -0.544933 -2.325680 3.144906
v 0.914865 -1.824086 3.298692
v 1.312541 -2.467027 2.713389
v -0.013872 -1.753412 3.514451
v 0.781479 -3.039295 2.343844
v -0.543156 -2.333113 3.154153
v 1.314318 -2.474460 2.722636
v -0.012095 -1.760845 3.523698
v -0.145481 -2.976054 2.568850
v 0.916642 -1.831519 3.307940
v 0.783256 -3.046728 2.353091
vn 0.0000 0.0000 1.0000
vn -0.7884 0.5031 0.3539
vn -0.8375 -0.0209 -0.5461
vn 0.8375 0.0208 0.5461
vn -0.1000 -0.9893 -0.1062
vn -0.7002 -0.6664 0.2563
vn 0.2318 0.3439 0.9100
vn 0.7148 -0.6983 0.0388
vn -0.5713 0.0002 0.8207
vn -0.2128 -0.6927 -0.6891
vn 0.8997 0.4021 0.1696
vn -0.1973 -0.7800 -0.5938
vn -0.8997 -0.4021 -0.1696
vn 0.1973 0.7800 0.5938
vn 0.7775 -0.4183 -0.4696
vn -0.7775 0.4183 0.4696
vn -0.1953 0.6535 -0.7313
vn -0.1105 0.7004 -0.7051
vn -0.2056 0.5862 -0.7836
vn -0.1973 -0.7801 -0.5938
vn 0.1973 0.7801 0.5938
vn 0.7775 -0.4183 -0.4695
vn 0.8996 0.4026 0.1689
vn 0.1928 0.7808 0.5942
vn 0.7740 -0.4214 -0.4726
vn -0.1321 0.6213 -0.7723
vn -0.1321 0.6214 -0.7723
vn -0.1322 0.6214 -0.7723
vn 0.1321 -0.6214 0.7723
vn 0.1322 -0.6213 0.7723
vn -0.1322 0.6213 -0.7723
vn 0.1321 -0.6213 0.7723
vn 0.8760 0.1156 0.4682
vn 0.1289 0.9623 0.2395
vn 0.2348 0.4410 0.8662
vn 0.6218 -0.0736 -0.7797
vn -0.7612 0.6403 0.1023
vn -0.7600 -0.6267 0.1721
vn -0.7775 0.4183 0.4695
vn -0.2349 -0.4395 -0.8670
vn 0.7594 -0.6438 -0.0944
vn -0.1277 -0.9638 -0.2340
vn -0.8771 -0.1189 -0.4653
vn -0.6239 0.0767 0.7777
vn 0.7598 0.6269 -0.1724
vn -0.0619 0.5813 -0.8113
vn -0.1485 0.5523 -0.8203
vn -0.0310 0.6623 -0.7486
vn -0.1177 0.6277 -0.7695
vn -0.1465 0.6148 -0.7749
vn -0.1209 0.6152 -0.7790
vn -0.1353 0.6088 -0.7817
vn -0.1290 0.6337 -0.7627
vn -0.1433 0.6273 -0.7655
vn -0.7758 0.4106 0.4791
vn 0.1968 0.7823 0.5910
vn -0.1968 -0.7823 -0.5910
vn 0.7758 -0.4106 -0.4791
vn -0.8977 -0.4113 -0.1581
vn 0.8977 0.4113 0.1581
usemtl Material.002
s off
f 21//1 23//1 35//1 33//1
f 23//2 20//2 32//2 35//2
f 20//3 24//3 36//3 32//3
f 15//4 17//4 24//4 20//4
f 18//5 16//5 23//5 21//5
f 13//6 18//6 21//6 19//6
f 17//7 14//7 22//7 24//7
f 16//8 15//8 20//8 23//8
f 14//9 13//9 19//9 22//9
f 22//1 19//1 31//1 34//1
f 19//1 21//1 33//1 31//1
f 24//10 22//10 34//10 36//10
f 32//11 36//11 42//11 38//11
f 33//12 35//12 41//12 39//12
f 31//13 33//13 39//13 37//13
f 36//14 34//14 40//14 42//14
f 35//15 32//15 38//15 41//15
f 34//16 31//16 37//16 40//16
f 109//17 112//17 94//17 91//17
f 111//18 109//18 91//18 93//18
f 112//19 114//19 96//19 94//19
f 5//11 4//11 111//11 113//11
f 1//20 6//20 110//20 114//20
f 2//13 1//13 114//13 112//13
f 4//21 3//21 109//21 111//21
f 6//22 5//22 113//22 110//22
f 3//16 2//16 112//16 109//16
f 95//1 92//1 140//1 143//1
f 91//1 93//1 141//1 139//1
f 94//1 91//1 139//1 142//1
f 96//1 94//1 142//1 144//1
f 139//1 141//1 147//1 145//1
f 142//1 139//1 145//1 148//1
f 144//1 142//1 148//1 150//1
f 143//1 140//1 146//1 149//1
usemtl Material
f 128//23 132//23 17//23 15//23
f 129//12 131//12 16//12 18//12
f 127//13 129//13 18//13 13//13
f 132//24 130//24 14//24 17//24
f 131//25 128//25 15//25 16//25
f 130//16 127//16 13//16 14//16
f 95//11 93//11 135//11 137//11
f 96//12 92//12 134//12 138//12
f 94//13 96//13 138//13 136//13
f 93//14 91//14 133//14 135//14
f 92//15 95//15 137//15 134//15
f 91//16 94//16 136//16 133//16
usemtl Material.001
f 11//26 12//26 30//26 29//26
f 7//26 8//26 25//26 26//26
f 10//26 11//26 29//26 28//26
f 42//1 40//1 52//1 54//1
f 27//27 28//27 46//27 45//27
f 30//27 26//27 44//27 48//27
f 37//1 39//1 51//1 49//1
f 25//28 27//28 45//28 43//28
f 40//1 37//1 49//1 52//1
f 8//26 9//26 27//26 25//26
f 12//26 7//26 26//26 30//26
f 9//26 10//26 28//26 27//26
f 49//1 51//1 63//1 61//1
f 44//29 43//29 55//29 56//29
f 52//1 49//1 61//1 64//1
f 46//30 47//30 59//30 58//30
f 51//1 53//1 65//1 63//1
f 53//1 50//1 62//1 65//1
f 38//1 42//1 54//1 50//1
f 28//26 29//26 47//26 46//26
f 41//1 38//1 50//1 53//1
f 26//26 25//26 43//26 44//26
f 39//1 41//1 53//1 51//1
f 29//28 30//28 48//28 47//28
f 56//27 55//27 67//27 68//27
f 64//1 61//1 73//1 76//1
f 58//31 59//31 71//31 70//31
f 63//1 65//1 77//1 75//1
f 65//1 62//1 74//1 77//1
f 57//27 58//27 70//27 69//27
f 47//29 48//29 60//29 59//29
f 43//32 45//32 57//32 55//32
f 54//1 52//1 64//1 66//1
f 48//29 44//29 56//29 60//29
f 50//1 54//1 66//1 62//1
f 45//32 46//32 58//32 57//32
f 76//1 73//1 85//1 88//1
f 70//32 71//32 83//32 82//32
f 75//1 77//1 89//1 87//1
f 77//1 74//1 86//1 89//1
f 69//32 70//32 82//32 81//32
f 74//1 78//1 90//1 86//1
f 61//1 63//1 75//1 73//1
f 59//28 60//28 72//28 71//28
f 55//26 57//26 69//26 67//26
f 66//1 64//1 76//1 78//1
f 60//27 56//27 68//27 72//27
f 62//1 66//1 78//1 74//1
f 86//33 90//33 108//33 104//33
f 84//34 80//34 98//34 102//34
f 90//35 88//35 106//35 108//35
f 79//36 81//36 99//36 97//36
f 83//37 84//37 102//37 101//37
f 85//38 87//38 105//38 103//38
f 68//32 67//32 79//32 80//32
f 73//1 75//1 87//1 85//1
f 71//32 72//32 84//32 83//32
f 67//32 69//32 81//32 79//32
f 78//1 76//1 88//1 90//1
f 72//32 68//32 80//32 84//32
f 106//39 103//39 97//39 99//39
f 107//22 104//22 101//22 102//22
f 108//21 106//21 99//21 100//21
f 103//13 105//13 98//13 97//13
f 105//20 107//20 102//20 98//20
f 104//11 108//11 100//11 101//11
f 81//40 82//40 100//40 99//40
f 89//41 86//41 104//41 107//41
f 87//42 89//42 107//42 105//42
f 82//43 83//43 101//43 100//43
f 88//44 85//44 103//44 106//44
f 80//45 79//45 97//45 98//45
usemtl Material.003
f 118//16 115//16 121//16 124//16
f 119//15 116//15 122//15 125//15
f 120//14 118//14 124//14 126//14
f 115//13 117//13 123//13 121//13
f 117//12 119//12 125//12 123//12
f 116//11 120//11 126//11 122//11
usemtl Material.004
f 110//46 113//46 95//46 92//46
f 114//47 110//47 92//47 96//47
f 113//48 111//48 93//48 95//48
f 92//1 96//1 144//1 140//1
f 93//1 95//1 143//1 141//1
f 140//1 144//1 150//1 146//1
f 141//1 143//1 149//1 147//1
f 166//49 163//49 155//49 153//49
f 167//50 164//50 154//50 156//50
f 163//51 165//51 152//51 155//51
f 165//52 167//52 156//52 152//52
f 168//53 166//53 153//53 151//53
f 164//54 168//54 151//54 154//54
f 148//55 145//55 162//55 160//55
f 145//56 147//56 157//56 162//56
f 146//57 150//57 159//57 161//57
f 149//58 146//58 161//58 158//58
f 150//59 148//59 160//59 159//59
f 147//60 149//60 158//60 157//60
f 160//55 162//55 168//55 164//55
f 162//56 157//56 166//56 168//56
f 161//57 159//57 167//57 165//57
f 158//58 161//58 165//58 163//58
f 159//59 160//59 164//59 167//59
f 157//60 158//60 163//60 166//60
usemtl Material.005
f 133//16 136//16 115//16 118//16
f 134//15 137//15 116//15 119//15
f 135//14 133//14 118//14 120//14
f 136//13 138//13 117//13 115//13
f 138//12 134//12 119//12 117//12
f 137//11 135//11 120//11 116//11
f 124//16 121//16 127//16 130//16
f 125//15 122//15 128//15 131//15
f 126//14 124//14 130//14 132//14
f 121//13 123//13 129//13 127//13
f 123//12 125//12 131//12 129//12
f 122//11 126//11 132//11 128//11
